<?xml version="1.0" encoding="UTF-8" standalone="no"?>
<svg width="20px" height="18px" viewBox="0 0 20 18" version="1.1" xmlns="http://www.w3.org/2000/svg" xmlns:xlink="http://www.w3.org/1999/xlink">
    <!-- Generator: Sketch 39.1 (31720) - http://www.bohemiancoding.com/sketch -->
    <title>Slice 1</title>
    <desc>Created with Sketch.</desc>
    <defs></defs>
    <g id="Page-1" stroke="none" stroke-width="1" fill="none" fill-rule="evenodd">
        <g id="bubble" fill="#FFFFFF">
            <path d="M20,7.5 C20,8.9 19.6,10.1 18.7,11.3 C17.8,12.5 16.6,13.4 15.1,14 C13.6,14.7 11.9,15 10.1,15 C9.6,15 9,15 8.5,14.9 C7,16.3 5.3,17.2 3.4,17.7 C2.9,17.8 2.5,17.9 2,18 C1.9,18 1.8,18 1.7,17.9 C1.6,17.8 1.5,17.7 1.5,17.6 L1.5,17.6 L1.5,17.5 L1.5,17.4 C1.5,17.4 1.5,17.3 1.6,17.3 C1.6,17.2 1.7,17.2 1.7,17.2 C1.7,17.2 1.7,17.2 1.8,17.1 C1.8,17 1.9,17 1.9,17 C2,16.9 2.1,16.8 2.2,16.6 C2.4,16.4 2.5,16.2 2.6,16.2 C2.7,16.1 2.8,16 2.9,15.7 C3,15.3 3.1,15.1 3.2,15 C3.3,14.8 3.4,14.6 3.5,14.3 C3.6,14 3.7,13.7 3.8,13.4 C2.6,12.7 1.7,11.8 1,10.8 C0.3,9.8 0,8.7 0,7.5 C0,6.5 0.3,5.5 0.8,4.6 C1.3,3.7 2,2.9 2.9,2.2 C3.8,1.5 4.9,1 6.1,0.6 C7.3,0.2 8.6,0 10,0 C11.8,0 13.5,0.3 15,1 C16.5,1.7 17.7,2.6 18.6,3.7 C19.6,4.9 20,6.1 20,7.5 L20,7.5 L20,7.5 Z" id="Page-1"></path>
        </g>
    </g>
</svg>